<?xml version="1.0" encoding="UTF-8" standalone="no"?>
<!DOCTYPE svg PUBLIC "-//W3C//DTD SVG 1.1//EN"
 "http://www.w3.org/Graphics/SVG/1.1/DTD/svg11.dtd">
<!-- Generated by graphviz version 2.50.0 (0)
 -->
<!-- Pages: 1 -->
<svg width="387pt" height="210pt"
 viewBox="0.00 0.00 387.33 210.00" xmlns="http://www.w3.org/2000/svg" xmlns:xlink="http://www.w3.org/1999/xlink">
<g id="graph0" class="graph" transform="scale(1 1) rotate(0) translate(4 206)">
<polygon fill="white" stroke="transparent" points="-4,4 -4,-206 383.33,-206 383.33,4 -4,4"/>
<!-- Client -->
<g id="node1" class="node">
<title>Client</title>
<ellipse fill="lightblue" stroke="lightblue" cx="192.17" cy="-184" rx="29.6" ry="18"/>
<text text-anchor="middle" x="192.17" y="-180.9" font-family="Helvetica,sans-Serif" font-size="12.00">Client</text>
</g>
<!-- Platform -->
<g id="node2" class="node">
<title>Platform</title>
<polygon fill="lightgrey" stroke="lightgrey" points="222.67,-119 161.67,-119 161.67,-83 222.67,-83 222.67,-119"/>
<text text-anchor="middle" x="192.17" y="-97.9" font-family="Helvetica,sans-Serif" font-size="12.00">Platform</text>
</g>
<!-- Client&#45;&gt;Platform -->
<g id="edge1" class="edge">
<title>Client&#45;&gt;Platform</title>
<path fill="none" stroke="black" d="M180.73,-167.04C177.27,-161.31 173.93,-154.63 172.17,-148 170.44,-141.48 171.58,-134.7 174.02,-128.41"/>
<polygon fill="black" stroke="black" points="177.37,-129.54 178.7,-119.03 171.1,-126.42 177.37,-129.54"/>
<text text-anchor="middle" x="181.67" y="-140" font-family="Courier,monospace" font-size="10.00" fill="darkblue">RfQ</text>
</g>
<!-- Platform&#45;&gt;Client -->
<g id="edge10" class="edge">
<title>Platform&#45;&gt;Client</title>
<path fill="none" stroke="black" d="M192.17,-119.15C192.17,-129.78 192.17,-143.66 192.17,-155.77"/>
<polygon fill="black" stroke="black" points="188.67,-155.82 192.17,-165.82 195.67,-155.82 188.67,-155.82"/>
<text text-anchor="middle" x="210.67" y="-140" font-family="Courier,monospace" font-size="10.00" fill="darkred">Quotes</text>
</g>
<!-- Dealer1 -->
<g id="node3" class="node">
<title>Dealer1</title>
<ellipse fill="lightcoral" stroke="lightcoral" cx="38.17" cy="-18" rx="38.33" ry="18"/>
<text text-anchor="middle" x="38.17" y="-14.9" font-family="Helvetica-Italic" font-size="12.00">Dealer 1</text>
</g>
<!-- Platform&#45;&gt;Dealer1 -->
<g id="edge2" class="edge">
<title>Platform&#45;&gt;Dealer1</title>
<path fill="none" stroke="black" d="M161.58,-98.33C116.81,-95.17 36.82,-86.58 19.17,-65 14.17,-58.89 15.16,-51.27 18.5,-44.01"/>
<polygon fill="black" stroke="black" points="21.67,-45.54 23.72,-35.14 15.63,-41.99 21.67,-45.54"/>
<text text-anchor="middle" x="28.67" y="-57" font-family="Courier,monospace" font-size="10.00" fill="darkblue">RfQ</text>
</g>
<!-- Dealer2 -->
<g id="node4" class="node">
<title>Dealer2</title>
<ellipse fill="lightcoral" stroke="lightcoral" cx="144.17" cy="-18" rx="38.33" ry="18"/>
<text text-anchor="middle" x="144.17" y="-14.9" font-family="Helvetica-Italic" font-size="12.00">Dealer 2</text>
</g>
<!-- Platform&#45;&gt;Dealer2 -->
<g id="edge4" class="edge">
<title>Platform&#45;&gt;Dealer2</title>
<path fill="none" stroke="black" d="M161.45,-92.97C146.56,-87.85 130.02,-79.24 121.17,-65 116.92,-58.18 118.51,-50.47 122.34,-43.33"/>
<polygon fill="black" stroke="black" points="125.46,-44.97 128.14,-34.72 119.65,-41.06 125.46,-44.97"/>
<text text-anchor="middle" x="130.67" y="-57" font-family="Courier,monospace" font-size="10.00" fill="darkblue">RfQ</text>
</g>
<!-- Dealer3 -->
<g id="node5" class="node">
<title>Dealer3</title>
<ellipse fill="lightcoral" stroke="lightcoral" cx="244.17" cy="-18" rx="38.33" ry="18"/>
<text text-anchor="middle" x="244.17" y="-14.9" font-family="Helvetica-Italic" font-size="12.00">Dealer 3</text>
</g>
<!-- Platform&#45;&gt;Dealer3 -->
<g id="edge6" class="edge">
<title>Platform&#45;&gt;Dealer3</title>
<path fill="none" stroke="black" d="M203.19,-82.82C210.44,-71.54 220.04,-56.59 228.12,-43.99"/>
<polygon fill="black" stroke="black" points="231.23,-45.63 233.69,-35.32 225.34,-41.85 231.23,-45.63"/>
<text text-anchor="middle" x="230.67" y="-57" font-family="Courier,monospace" font-size="10.00" fill="darkblue">RfQ</text>
</g>
<!-- Dealer4 -->
<g id="node6" class="node">
<title>Dealer4</title>
<ellipse fill="lightcoral" stroke="lightcoral" cx="341.17" cy="-18" rx="38.33" ry="18"/>
<text text-anchor="middle" x="341.17" y="-14.9" font-family="Helvetica-Italic" font-size="12.00">Dealer 4</text>
</g>
<!-- Platform&#45;&gt;Dealer4 -->
<g id="edge8" class="edge">
<title>Platform&#45;&gt;Dealer4</title>
<path fill="none" stroke="black" d="M222.98,-91.45C241.92,-85.5 266.29,-76.55 286.17,-65 297.32,-58.52 308.46,-49.74 317.76,-41.6"/>
<polygon fill="black" stroke="black" points="320.35,-43.98 325.42,-34.67 315.66,-38.78 320.35,-43.98"/>
<text text-anchor="middle" x="311.67" y="-57" font-family="Courier,monospace" font-size="10.00" fill="darkblue">RfQ</text>
</g>
<!-- Dealer1&#45;&gt;Platform -->
<g id="edge3" class="edge">
<title>Dealer1&#45;&gt;Platform</title>
<path fill="none" stroke="black" d="M48.99,-35.56C56.19,-45.39 66.45,-57.39 78.17,-65 100.29,-79.39 128.65,-88.12 151.55,-93.27"/>
<polygon fill="black" stroke="black" points="151.14,-96.76 161.64,-95.39 152.57,-89.91 151.14,-96.76"/>
<text text-anchor="middle" x="96.67" y="-57" font-family="Courier,monospace" font-size="10.00" fill="darkred">Quote1</text>
</g>
<!-- Dealer2&#45;&gt;Platform -->
<g id="edge5" class="edge">
<title>Dealer2&#45;&gt;Platform</title>
<path fill="none" stroke="black" d="M149.87,-36.19C153.16,-45.1 157.73,-55.97 163.17,-65 165.21,-68.4 167.58,-71.82 170.05,-75.11"/>
<polygon fill="black" stroke="black" points="167.35,-77.34 176.32,-82.97 172.82,-72.97 167.35,-77.34"/>
<text text-anchor="middle" x="181.67" y="-57" font-family="Courier,monospace" font-size="10.00" fill="darkred">Quote2</text>
</g>
<!-- Dealer3&#45;&gt;Platform -->
<g id="edge7" class="edge">
<title>Dealer3&#45;&gt;Platform</title>
<path fill="none" stroke="black" d="M246.92,-36.15C247.55,-45.25 246.93,-56.31 242.17,-65 239.29,-70.24 235.26,-74.87 230.72,-78.9"/>
<polygon fill="black" stroke="black" points="228.46,-76.22 222.71,-85.13 232.75,-81.75 228.46,-76.22"/>
<text text-anchor="middle" x="263.67" y="-57" font-family="Courier,monospace" font-size="10.00" fill="darkred">Quote3</text>
</g>
<!-- Dealer4&#45;&gt;Platform -->
<g id="edge9" class="edge">
<title>Dealer4&#45;&gt;Platform</title>
<path fill="none" stroke="black" d="M339.22,-36.04C337.23,-45.79 333.23,-57.53 325.17,-65 300.27,-88.04 262.05,-96.28 232.96,-99.06"/>
<polygon fill="black" stroke="black" points="232.4,-95.6 222.7,-99.86 232.94,-102.57 232.4,-95.6"/>
<text text-anchor="middle" x="350.67" y="-57" font-family="Courier,monospace" font-size="10.00" fill="darkred">Quote4</text>
</g>
</g>
</svg>